<!--?xml version="1.0" standalone="no"?-->
              <svg id="sw-js-blob-svg" viewBox="0 0 100 100" xmlns="http://www.w3.org/2000/svg" version="1.1">
                    <defs> 
                        <linearGradient id="sw-gradient" x1="0" x2="1" y1="1" y2="0">
                            <stop id="stop1" stop-color="rgba(255, 133, 0, 1)" offset="0%"></stop>
                            <stop id="stop2" stop-color="rgba(255, 133, 0, 1)" offset="100%"></stop>
                        </linearGradient>
                    </defs>
                <path fill="none" d="M18,-31.6C22.3,-28.8,23.8,-21.7,25.6,-15.8C27.3,-9.8,29.1,-4.9,30.4,0.7C31.7,6.4,32.3,12.7,29.9,17.4C27.4,22.1,21.8,25.1,16.3,28.7C10.8,32.3,5.4,36.4,-0.1,36.6C-5.6,36.7,-11.1,32.8,-16.6,29.2C-22,25.6,-27.4,22.2,-30.3,17.4C-33.3,12.6,-33.8,6.3,-32.8,0.6C-31.9,-5.2,-29.4,-10.4,-26.3,-14.9C-23.2,-19.4,-19.4,-23.2,-14.9,-25.9C-10.4,-28.7,-5.2,-30.3,0.8,-31.7C6.9,-33.2,13.8,-34.5,18,-31.6Z" width="100%" height="100%" transform="translate(50 50)" stroke-width="1" style="transition: all 0.3s ease 0s;" stroke="url(#sw-gradient)"></path>
              </svg>