<!--?xml version="1.0" standalone="no"?-->
              <svg id="sw-js-blob-svg" viewBox="0 0 100 100" xmlns="http://www.w3.org/2000/svg" version="1.1">
                    <defs> 
                        <linearGradient id="sw-gradient" x1="0" x2="1" y1="1" y2="0">
                            <stop id="stop1" stop-color="rgba(255, 133, 0, 1)" offset="0%"></stop>
                            <stop id="stop2" stop-color="rgba(255, 133, 0, 1)" offset="100%"></stop>
                        </linearGradient>
                    </defs>
                <path fill="none" d="M14,-27.5C17.3,-22.4,18.3,-16.8,18.1,-12.1C17.8,-7.5,16.3,-3.7,18.7,1.4C21.1,6.5,27.4,13,26.8,16.2C26.2,19.4,18.7,19.4,13,22C7.4,24.7,3.7,30.1,-1.8,33.1C-7.2,36.2,-14.5,36.9,-19.7,34C-24.9,31.1,-28.1,24.6,-27.4,18.3C-26.8,12,-22.3,6,-21.7,0.4C-21,-5.3,-24.2,-10.5,-24.2,-15.8C-24.3,-21,-21.2,-26.2,-16.7,-30.5C-12.1,-34.8,-6,-38.2,-0.3,-37.7C5.4,-37.1,10.8,-32.6,14,-27.5Z" width="100%" height="100%" transform="translate(50 50)" stroke-width="1" style="transition: all 0.3s ease 0s;" stroke="url(#sw-gradient)"></path>
              </svg>