<!--?xml version="1.0" standalone="no"?-->
              <svg id="sw-js-blob-svg" viewBox="0 0 100 100" xmlns="http://www.w3.org/2000/svg" version="1.1">
                    <defs> 
                        <linearGradient id="sw-gradient" x1="0" x2="1" y1="1" y2="0">
                            <stop id="stop1" stop-color="rgba(255, 133, 0, 1)" offset="0%"></stop>
                            <stop id="stop2" stop-color="rgba(255, 133, 0, 1)" offset="100%"></stop>
                        </linearGradient>
                    </defs>
                <path fill="none" d="M10.3,-15.2C14.1,-15.7,18.2,-14.3,23.3,-11.5C28.3,-8.6,34.3,-4.3,33.9,-0.2C33.5,3.8,26.7,7.7,20.8,9.1C14.9,10.5,9.9,9.5,6.6,14.8C3.3,20.1,1.7,31.6,-0.8,33C-3.2,34.3,-6.4,25.5,-7.7,19.1C-9,12.6,-8.3,8.5,-9.9,5.7C-11.6,2.9,-15.7,1.5,-19.8,-2.4C-23.8,-6.2,-27.9,-12.3,-27.1,-16.7C-26.4,-21,-20.7,-23.6,-15.4,-22.1C-10.1,-20.6,-5,-15,-0.9,-13.5C3.3,-12,6.6,-14.6,10.3,-15.2Z" width="100%" height="100%" transform="translate(50 50)" stroke-width="1" style="transition: all 0.3s ease 0s;" stroke="url(#sw-gradient)"></path>
              </svg>