<!--?xml version="1.0" standalone="no"?-->
              <svg id="sw-js-blob-svg" viewBox="0 0 100 100" xmlns="http://www.w3.org/2000/svg" version="1.1">
                    <defs> 
                        <linearGradient id="sw-gradient" x1="0" x2="1" y1="1" y2="0">
                            <stop id="stop1" stop-color="rgba(255, 133, 0, 1)" offset="0%"></stop>
                            <stop id="stop2" stop-color="rgba(251, 168, 31, 1)" offset="100%"></stop>
                        </linearGradient>
                    </defs>
                <path fill="url(#sw-gradient)" d="M22.5,-38.7C29.3,-35.1,35.1,-29.3,39.3,-22.5C43.4,-15.7,46,-7.9,46,0C46,7.8,43.3,15.6,39.2,22.6C35.2,29.6,29.7,35.7,22.9,39.3C16.1,42.8,8.1,43.7,0.1,43.6C-7.9,43.5,-15.8,42.3,-21.4,38.1C-27,33.9,-30.3,26.6,-33.8,19.8C-37.4,12.9,-41.3,6.4,-41.6,-0.2C-41.9,-6.8,-38.6,-13.6,-34.4,-19.2C-30.1,-24.8,-24.8,-29.3,-18.9,-33.4C-13,-37.4,-6.5,-41.2,0.7,-42.4C7.9,-43.6,15.7,-42.3,22.5,-38.7Z" width="100%" height="100%" transform="translate(50 50)" stroke-width="0" style="transition: all 0.3s ease 0s;"></path>
              </svg>