<!--?xml version="1.0" standalone="no"?-->
              <svg id="sw-js-blob-svg" viewBox="0 0 100 100" xmlns="http://www.w3.org/2000/svg" version="1.1">
                    <defs> 
                        <linearGradient id="sw-gradient" x1="0" x2="1" y1="1" y2="0">
                            <stop id="stop1" stop-color="rgba(255, 133, 0, 1)" offset="0%"></stop>
                            <stop id="stop2" stop-color="rgba(251, 168, 31, 1)" offset="100%"></stop>
                        </linearGradient>
                    </defs>
                <path fill="url(#sw-gradient)" d="M22.9,-36.8C30.1,-35.6,36.7,-30.3,36.4,-23.5C36.2,-16.6,29.1,-8.3,28.7,-0.3C28.2,7.8,34.3,15.6,34.4,22C34.4,28.4,28.3,33.4,21.6,36.4C14.8,39.4,7.4,40.3,2,36.8C-3.3,33.3,-6.7,25.3,-12.5,21.8C-18.4,18.3,-26.7,19.3,-28.7,16.4C-30.8,13.5,-26.6,6.7,-23.3,1.9C-20,-2.9,-17.6,-5.8,-17.1,-11.5C-16.6,-17.2,-18.1,-25.6,-15.6,-29.5C-13.1,-33.5,-6.5,-32.9,0.7,-34.1C7.9,-35.2,15.7,-38,22.9,-36.8Z" width="100%" height="100%" transform="translate(50 50)" stroke-width="0" style="transition: all 0.3s ease 0s;"></path>
              </svg>