<!--?xml version="1.0" standalone="no"?-->
              <svg id="sw-js-blob-svg" viewBox="0 0 100 100" xmlns="http://www.w3.org/2000/svg" version="1.1">
                    <defs> 
                        <linearGradient id="sw-gradient" x1="0" x2="1" y1="1" y2="0">
                            <stop id="stop1" stop-color="rgba(255, 133, 0, 1)" offset="0%"></stop>
                            <stop id="stop2" stop-color="rgba(251, 168, 31, 1)" offset="100%"></stop>
                        </linearGradient>
                    </defs>
                <path fill="url(#sw-gradient)" d="M21.3,-32.6C26.9,-29.7,30,-22.4,32.3,-15.3C34.6,-8.3,36.1,-1.4,36.7,6.4C37.4,14.3,37.2,23.2,32.7,28.2C28.2,33.3,19.3,34.4,11.5,34.6C3.7,34.7,-3,33.9,-9.8,32.4C-16.6,30.8,-23.4,28.5,-28.3,23.9C-33.2,19.3,-36.1,12.5,-35.6,6C-35.1,-0.4,-31.3,-6.5,-29,-14C-26.7,-21.5,-26,-30.4,-21.4,-33.8C-16.9,-37.2,-8.4,-35,-0.3,-34.6C7.9,-34.2,15.8,-35.6,21.3,-32.6Z" width="100%" height="100%" transform="translate(50 50)" stroke-width="0" style="transition: all 0.3s ease 0s;"></path>
              </svg>